<svg width="683" height="36" viewBox="0 0 683 36" fill="none" xmlns="http://www.w3.org/2000/svg">
<path d="M683 16.939C683 17.6234 682.963 18.2394 682.889 18.7869H671.612C671.705 20.1558 672.095 21.228 672.781 22.0037C673.468 22.7794 674.313 23.1672 675.315 23.1672C676.763 23.1672 677.793 22.403 678.406 20.8744H682.61C682.165 22.6995 681.311 24.2053 680.049 25.3916C678.786 26.5551 677.236 27.1368 675.399 27.1368C673.914 27.1368 672.577 26.7376 671.389 25.9391C670.22 25.1178 669.301 23.9657 668.633 22.4828C667.983 20.9999 667.658 19.2889 667.658 17.3497C667.658 15.3877 667.983 13.6652 668.633 12.1823C669.282 10.6994 670.192 9.55872 671.361 8.76023C672.531 7.96174 673.877 7.5625 675.399 7.5625C676.865 7.5625 678.174 7.95034 679.325 8.72601C680.494 9.50168 681.394 10.6082 682.025 12.0454C682.675 13.4599 683 15.0911 683 16.939ZM678.963 15.5702C678.944 14.3382 678.582 13.3572 677.877 12.6272C677.171 11.8743 676.308 11.4979 675.287 11.4979C674.322 11.4979 673.505 11.8629 672.837 12.593C672.187 13.3002 671.788 14.2926 671.64 15.5702H678.963Z" fill="white"/>
<path d="M648.788 17.2817C648.788 15.3653 649.094 13.6657 649.707 12.1828C650.338 10.6999 651.192 9.55916 652.269 8.76068C653.345 7.96219 654.542 7.56295 655.86 7.56295C656.863 7.56295 657.819 7.83671 658.728 8.38425C659.638 8.90897 660.362 9.6162 660.9 10.5059V1.50586H664.854V26.8293H660.9V24.0232C660.417 24.9585 659.74 25.7114 658.867 26.2817C657.995 26.8521 656.983 27.1373 655.832 27.1373C654.533 27.1373 653.345 26.7266 652.269 25.9053C651.192 25.084 650.338 23.9319 649.707 22.449C649.094 20.9433 648.788 19.2208 648.788 17.2817ZM660.928 17.3501C660.928 16.1866 660.742 15.1942 660.371 14.3729C660 13.5288 659.498 12.89 658.867 12.4565C658.236 12.0002 657.559 11.7721 656.835 11.7721C656.111 11.7721 655.443 11.9888 654.83 12.4223C654.218 12.8558 653.716 13.4946 653.327 14.3387C652.955 15.16 652.77 16.141 652.77 17.2817C652.77 18.4224 652.955 19.4262 653.327 20.2931C653.716 21.1372 654.218 21.7874 654.83 22.2437C655.461 22.7 656.129 22.9281 656.835 22.9281C657.559 22.9281 658.236 22.7114 658.867 22.2779C659.498 21.8216 660 21.1828 660.371 20.3615C660.742 19.5174 660.928 18.5136 660.928 17.3501Z" fill="white"/>
<path d="M646.945 16.939C646.945 17.6234 646.908 18.2394 646.834 18.7869H635.557C635.65 20.1558 636.04 21.228 636.727 22.0037C637.414 22.7794 638.258 23.1672 639.26 23.1672C640.708 23.1672 641.739 22.403 642.351 20.8744H646.555C646.11 22.6995 645.256 24.2053 643.994 25.3916C642.732 26.5551 641.182 27.1368 639.344 27.1368C637.859 27.1368 636.522 26.7376 635.335 25.9391C634.165 25.1178 633.246 23.9657 632.578 22.4828C631.928 20.9999 631.604 19.2889 631.604 17.3497C631.604 15.3877 631.928 13.6652 632.578 12.1823C633.228 10.6994 634.137 9.55872 635.307 8.76023C636.476 7.96174 637.822 7.5625 639.344 7.5625C640.81 7.5625 642.119 7.95034 643.27 8.72601C644.439 9.50168 645.34 10.6082 645.971 12.0454C646.62 13.4599 646.945 15.0911 646.945 16.939ZM642.908 15.5702C642.889 14.3382 642.527 13.3572 641.822 12.6272C641.117 11.8743 640.254 11.4979 639.233 11.4979C638.267 11.4979 637.451 11.8629 636.782 12.593C636.133 13.3002 635.734 14.2926 635.585 15.5702H642.908Z" fill="white"/>
<path d="M624.792 26.829L620.504 17.521H618.667V26.829H614.769V2.94287H622.064C623.567 2.94287 624.848 3.27367 625.906 3.93527C626.964 4.57406 627.753 5.4524 628.273 6.57028C628.811 7.66535 629.08 8.8973 629.08 10.2661C629.08 11.8403 628.709 13.2662 627.966 14.5437C627.224 15.7985 626.119 16.6654 624.653 17.1445L629.303 26.829H624.792ZM618.667 13.9278H621.924C622.982 13.9278 623.771 13.6198 624.291 13.0038C624.811 12.365 625.071 11.4867 625.071 10.3688C625.071 9.27373 624.811 8.42962 624.291 7.83645C623.771 7.22048 622.982 6.91249 621.924 6.91249H618.667V13.9278Z" fill="white"/>
<path d="M588.261 17.2812C588.261 15.3649 588.567 13.6652 589.18 12.1823C589.811 10.6994 590.656 9.55872 591.714 8.76023C592.79 7.96174 593.988 7.5625 595.306 7.5625C596.456 7.5625 597.459 7.84767 598.313 8.41802C599.185 8.98837 599.881 9.70701 600.401 10.5739V7.87049H604.327V26.8289H600.401V24.057C599.9 24.9467 599.204 25.6882 598.313 26.2813C597.44 26.8517 596.429 27.1368 595.278 27.1368C593.978 27.1368 592.79 26.7262 591.714 25.9049C590.656 25.0836 589.811 23.9315 589.18 22.4486C588.567 20.9429 588.261 19.2204 588.261 17.2812ZM600.401 17.3497C600.401 16.1862 600.215 15.1938 599.844 14.3725C599.473 13.5283 598.972 12.8896 598.341 12.4561C597.709 11.9998 597.032 11.7717 596.308 11.7717C595.584 11.7717 594.916 11.9884 594.303 12.4219C593.691 12.8553 593.19 13.4941 592.8 14.3382C592.428 15.1595 592.243 16.1405 592.243 17.2812C592.243 18.4219 592.428 19.4257 592.8 20.2927C593.19 21.1368 593.691 21.787 594.303 22.2433C594.934 22.6995 595.603 22.9277 596.308 22.9277C597.032 22.9277 597.709 22.7109 598.341 22.2775C598.972 21.8212 599.473 21.1824 599.844 20.3611C600.215 19.517 600.401 18.5132 600.401 17.3497Z" fill="white"/>
<path d="M585.417 7.87109V26.8295H581.491V24.434C580.99 25.2553 580.331 25.9055 579.514 26.3846C578.716 26.8409 577.844 27.069 576.897 27.069C575.69 27.069 574.623 26.761 573.695 26.145C572.767 25.5062 572.034 24.5823 571.495 23.3731C570.976 22.1412 570.716 20.6811 570.716 18.9929V7.87109H574.614V18.3085C574.614 19.8142 574.92 20.9777 575.533 21.799C576.145 22.5975 576.981 22.9967 578.039 22.9967C579.115 22.9967 579.96 22.5975 580.572 21.799C581.185 20.9777 581.491 19.8142 581.491 18.3085V7.87109H585.417Z" fill="white"/>
<path d="M560.598 27.0685C559.243 27.0685 558.018 26.7833 556.923 26.213C555.846 25.6426 554.992 24.8213 554.361 23.7491C553.73 22.6768 553.405 21.4107 553.387 19.9506H557.563C557.619 20.9316 557.897 21.7072 558.399 22.2776C558.918 22.8479 559.624 23.1331 560.515 23.1331C561.424 23.1331 562.139 22.8707 562.659 22.346C563.178 21.7985 563.438 21.0913 563.438 20.2243C563.438 19.5171 563.262 18.9353 562.909 18.4791C562.556 18.0228 562.111 17.6692 561.573 17.4182C561.053 17.1445 560.329 16.8479 559.401 16.5285C558.139 16.0722 557.108 15.6273 556.31 15.1939C555.531 14.7376 554.853 14.0646 554.278 13.1748C553.721 12.2623 553.442 11.0531 553.442 9.54742C553.442 8.13296 553.73 6.901 554.306 5.85156C554.881 4.80212 555.688 4.00364 556.728 3.45611C557.767 2.88576 558.955 2.60059 560.292 2.60059C562.297 2.60059 563.921 3.20515 565.164 4.41429C566.427 5.60061 567.123 7.26603 567.253 9.41054H562.965C562.928 8.58924 562.64 7.91622 562.102 7.3915C561.582 6.84397 560.886 6.5702 560.013 6.5702C559.252 6.5702 558.64 6.80975 558.176 7.28884C557.73 7.76794 557.508 8.46376 557.508 9.37632C557.508 10.0151 557.675 10.5512 558.009 10.9847C558.361 11.3953 558.788 11.7376 559.29 12.0113C559.809 12.2623 560.533 12.5589 561.461 12.9011C562.723 13.3573 563.754 13.8136 564.552 14.2699C565.35 14.7262 566.037 15.4106 566.612 16.3231C567.188 17.2357 567.475 18.4334 567.475 19.9163C567.475 21.1939 567.206 22.3802 566.668 23.4753C566.13 24.5704 565.341 25.4487 564.301 26.1103C563.262 26.7491 562.027 27.0685 560.598 27.0685Z" fill="white"/>
<path d="M527.381 17.2812C527.381 15.3649 527.687 13.6652 528.3 12.1823C528.931 10.6994 529.775 9.55872 530.833 8.76023C531.91 7.96174 533.107 7.5625 534.425 7.5625C535.576 7.5625 536.578 7.84767 537.432 8.41802C538.305 8.98837 539.001 9.70701 539.521 10.5739V7.87049H543.446V26.8289H539.521V24.057C539.019 24.9467 538.323 25.6882 537.432 26.2813C536.56 26.8517 535.548 27.1368 534.397 27.1368C533.098 27.1368 531.91 26.7262 530.833 25.9049C529.775 25.0836 528.931 23.9315 528.3 22.4486C527.687 20.9429 527.381 19.2204 527.381 17.2812ZM539.521 17.3497C539.521 16.1862 539.335 15.1938 538.964 14.3725C538.592 13.5283 538.091 12.8896 537.46 12.4561C536.829 11.9998 536.152 11.7717 535.428 11.7717C534.704 11.7717 534.035 11.9884 533.423 12.4219C532.81 12.8553 532.309 13.4941 531.919 14.3382C531.548 15.1595 531.362 16.1405 531.362 17.2812C531.362 18.4219 531.548 19.4257 531.919 20.2927C532.309 21.1368 532.81 21.787 533.423 22.2433C534.054 22.6995 534.722 22.9277 535.428 22.9277C536.152 22.9277 536.829 22.7109 537.46 22.2775C538.091 21.8212 538.592 21.1824 538.964 20.3611C539.335 19.517 539.521 18.5132 539.521 17.3497Z" fill="white"/>
<path d="M508.511 17.2817C508.511 15.3653 508.817 13.6657 509.43 12.1828C510.061 10.6999 510.915 9.55916 511.991 8.76068C513.068 7.96219 514.265 7.56295 515.583 7.56295C516.585 7.56295 517.541 7.83671 518.451 8.38425C519.36 8.90897 520.084 9.6162 520.623 10.5059V1.50586H524.576V26.8293H520.623V24.0232C520.14 24.9585 519.462 25.7114 518.59 26.2817C517.718 26.8521 516.706 27.1373 515.555 27.1373C514.256 27.1373 513.068 26.7266 511.991 25.9053C510.915 25.084 510.061 23.9319 509.43 22.449C508.817 20.9433 508.511 19.2208 508.511 17.2817ZM520.65 17.3501C520.65 16.1866 520.465 15.1942 520.094 14.3729C519.722 13.5288 519.221 12.89 518.59 12.4565C517.959 12.0002 517.281 11.7721 516.558 11.7721C515.834 11.7721 515.165 11.9888 514.553 12.4223C513.94 12.8558 513.439 13.4946 513.049 14.3387C512.678 15.16 512.492 16.141 512.492 17.2817C512.492 18.4224 512.678 19.4262 513.049 20.2931C513.439 21.1372 513.94 21.7874 514.553 22.2437C515.184 22.7 515.852 22.9281 516.558 22.9281C517.281 22.9281 517.959 22.7114 518.59 22.2779C519.221 21.8216 519.722 21.1828 520.094 20.3615C520.465 19.5174 520.65 18.5136 520.65 17.3501Z" fill="white"/>
<path d="M493.609 27.1368C492.346 27.1368 491.214 26.8631 490.212 26.3155C489.21 25.7452 488.411 24.9809 487.817 24.0227C487.242 23.0646 486.926 22.0037 486.871 20.8402H490.797C490.871 21.5703 491.159 22.1748 491.66 22.6539C492.179 23.133 492.82 23.3725 493.581 23.3725C494.323 23.3725 494.899 23.19 495.307 22.825C495.734 22.46 495.948 21.9923 495.948 21.422C495.948 20.806 495.688 20.3497 495.168 20.0531C494.667 19.7337 493.859 19.3915 492.746 19.0265C491.595 18.6843 490.648 18.3307 489.906 17.9656C489.182 17.6006 488.55 17.0417 488.012 16.2888C487.492 15.536 487.233 14.5207 487.233 13.2432C487.233 12.1937 487.474 11.2355 487.957 10.3686C488.458 9.50168 489.163 8.81727 490.073 8.31536C491.001 7.81346 492.087 7.5625 493.33 7.5625C495.168 7.5625 496.634 8.13285 497.73 9.27354C498.825 10.3914 499.428 11.9085 499.539 13.8249H495.808C495.753 13.0721 495.493 12.4789 495.029 12.0454C494.583 11.5892 493.98 11.361 493.219 11.361C492.514 11.361 491.966 11.5207 491.576 11.8401C491.205 12.1595 491.019 12.6044 491.019 13.1747C491.019 13.8135 491.279 14.304 491.799 14.6462C492.319 14.9656 493.126 15.2964 494.221 15.6386C495.335 15.9808 496.254 16.3345 496.978 16.6995C497.702 17.0645 498.324 17.6348 498.843 18.4105C499.382 19.1634 499.66 20.1672 499.679 21.422C499.679 22.517 499.428 23.498 498.927 24.365C498.444 25.2319 497.739 25.9163 496.811 26.4182C495.901 26.8973 494.834 27.1368 493.609 27.1368Z" fill="white"/>
<path d="M484.938 10.3346C484.938 11.6122 484.688 12.8099 484.187 13.9278C483.704 15.0456 482.934 15.9468 481.876 16.6312C480.836 17.3156 479.518 17.6578 477.922 17.6578H474.664V26.829H470.766V2.94287H477.922C479.425 2.94287 480.706 3.26227 481.764 3.90106C482.822 4.53985 483.611 5.41818 484.131 6.53606C484.669 7.65394 484.938 8.92012 484.938 10.3346ZM477.755 13.7909C478.831 13.7909 479.63 13.4943 480.149 12.9011C480.669 12.2852 480.929 11.4296 480.929 10.3346C480.929 8.00756 479.871 6.84405 477.755 6.84405H474.664V13.7909H477.755Z" fill="white"/>
<path d="M466.915 2.94287V26.829H463.017V2.94287H466.915Z" fill="white"/>
<path d="M453.537 16.939C453.537 17.6234 453.5 18.2394 453.426 18.7869H442.149C442.242 20.1558 442.632 21.228 443.319 22.0037C444.005 22.7794 444.85 23.1672 445.852 23.1672C447.3 23.1672 448.33 22.403 448.943 20.8744H453.147C452.702 22.6995 451.848 24.2053 450.586 25.3916C449.323 26.5551 447.773 27.1368 445.936 27.1368C444.451 27.1368 443.114 26.7376 441.926 25.9391C440.757 25.1178 439.838 23.9657 439.17 22.4828C438.52 20.9999 438.195 19.2889 438.195 17.3497C438.195 15.3877 438.52 13.6652 439.17 12.1823C439.82 10.6994 440.729 9.55872 441.898 8.76023C443.068 7.96174 444.414 7.5625 445.936 7.5625C447.402 7.5625 448.711 7.95034 449.862 8.72601C451.031 9.50168 451.931 10.6082 452.563 12.0454C453.212 13.4599 453.537 15.0911 453.537 16.939ZM449.5 15.5702C449.481 14.3382 449.119 13.3572 448.414 12.6272C447.708 11.8743 446.845 11.4979 445.824 11.4979C444.859 11.4979 444.042 11.8629 443.374 12.593C442.725 13.3002 442.325 14.2926 442.177 15.5702H449.5Z" fill="white"/>
<path d="M419.325 17.2817C419.325 15.3653 419.631 13.6657 420.244 12.1828C420.875 10.6999 421.729 9.55916 422.805 8.76068C423.882 7.96219 425.079 7.56295 426.397 7.56295C427.399 7.56295 428.355 7.83671 429.265 8.38425C430.174 8.90897 430.898 9.6162 431.437 10.5059V1.50586H435.39V26.8293H431.437V24.0232C430.954 24.9585 430.276 25.7114 429.404 26.2817C428.532 26.8521 427.52 27.1373 426.369 27.1373C425.07 27.1373 423.882 26.7266 422.805 25.9053C421.729 25.084 420.875 23.9319 420.244 22.449C419.631 20.9433 419.325 19.2208 419.325 17.2817ZM431.464 17.3501C431.464 16.1866 431.279 15.1942 430.908 14.3729C430.536 13.5288 430.035 12.89 429.404 12.4565C428.773 12.0002 428.095 11.7721 427.371 11.7721C426.648 11.7721 425.979 11.9888 425.367 12.4223C424.754 12.8558 424.253 13.4946 423.863 14.3387C423.492 15.16 423.306 16.141 423.306 17.2817C423.306 18.4224 423.492 19.4262 423.863 20.2931C424.253 21.1372 424.754 21.7874 425.367 22.2437C425.998 22.7 426.666 22.9281 427.371 22.9281C428.095 22.9281 428.773 22.7114 429.404 22.2779C430.035 21.8216 430.536 21.1828 430.908 20.3615C431.279 19.5174 431.464 18.5136 431.464 17.3501Z" fill="white"/>
<path d="M402.786 27.1368C401.301 27.1368 399.965 26.7376 398.777 25.9391C397.589 25.1178 396.652 23.9657 395.965 22.4828C395.297 20.9999 394.962 19.2889 394.962 17.3497C394.962 15.4105 395.306 13.6994 395.993 12.2165C396.698 10.7336 397.654 9.59294 398.86 8.79445C400.067 7.97315 401.413 7.5625 402.898 7.5625C404.383 7.5625 405.729 7.97315 406.935 8.79445C408.142 9.59294 409.088 10.7336 409.775 12.2165C410.48 13.6994 410.833 15.4105 410.833 17.3497C410.833 19.2889 410.471 20.9999 409.747 22.4828C409.042 23.9657 408.077 25.1178 406.852 25.9391C405.645 26.7376 404.29 27.1368 402.786 27.1368ZM402.786 22.9619C403.492 22.9619 404.151 22.7566 404.763 22.3459C405.394 21.9125 405.896 21.2737 406.267 20.4296C406.638 19.5854 406.824 18.5588 406.824 17.3497C406.824 15.5474 406.434 14.1671 405.654 13.2089C404.893 12.2279 403.956 11.7374 402.842 11.7374C401.728 11.7374 400.791 12.2279 400.03 13.2089C399.287 14.1671 398.916 15.5474 398.916 17.3497C398.916 19.152 399.278 20.5436 400.002 21.5246C400.745 22.4828 401.673 22.9619 402.786 22.9619Z" fill="white"/>
<path d="M389.681 11.8063V20.9775C389.681 21.6163 389.801 22.0839 390.043 22.3805C390.302 22.6543 390.729 22.7912 391.323 22.7912H393.133V26.8292H390.683C387.397 26.8292 385.755 24.8672 385.755 20.9432V11.8063H383.917V7.87088H385.755V3.18262H389.681V7.87088H393.133V11.8063H389.681Z" fill="white"/>
<path d="M375.282 7.59668C377.119 7.59668 378.604 8.31532 379.737 9.75259C380.869 11.1671 381.435 13.1519 381.435 15.707V26.8288H377.537V16.3572C377.537 14.8515 377.231 13.6994 376.618 12.9009C376.006 12.0796 375.17 11.669 374.112 11.669C373.036 11.669 372.182 12.0796 371.551 12.9009C370.938 13.6994 370.632 14.8515 370.632 16.3572V26.8288H366.734V7.87045H370.632V10.2317C371.152 9.41038 371.811 8.7716 372.609 8.31532C373.426 7.83623 374.317 7.59668 375.282 7.59668Z" fill="white"/>
<path d="M363.889 16.939C363.889 17.6234 363.851 18.2394 363.777 18.7869H352.501C352.593 20.1558 352.983 21.228 353.67 22.0037C354.357 22.7794 355.201 23.1672 356.204 23.1672C357.652 23.1672 358.682 22.403 359.294 20.8744H363.499C363.053 22.6995 362.199 24.2053 360.937 25.3916C359.675 26.5551 358.125 27.1368 356.287 27.1368C354.802 27.1368 353.466 26.7376 352.278 25.9391C351.108 25.1178 350.19 23.9657 349.521 22.4828C348.872 20.9999 348.547 19.2889 348.547 17.3497C348.547 15.3877 348.872 13.6652 349.521 12.1823C350.171 10.6994 351.081 9.55872 352.25 8.76023C353.419 7.96174 354.765 7.5625 356.287 7.5625C357.754 7.5625 359.062 7.95034 360.213 8.72601C361.383 9.50168 362.283 10.6082 362.914 12.0454C363.564 13.4599 363.889 15.0911 363.889 16.939ZM359.851 15.5702C359.833 14.3382 359.471 13.3572 358.765 12.6272C358.06 11.8743 357.197 11.4979 356.176 11.4979C355.211 11.4979 354.394 11.8629 353.726 12.593C353.076 13.3002 352.677 14.2926 352.529 15.5702H359.851Z" fill="white"/>
<path d="M339.53 7.59668C341.424 7.59668 342.946 8.31532 344.097 9.75259C345.266 11.1671 345.851 13.1519 345.851 15.707V26.8288H341.953V16.3572C341.953 14.8743 341.646 13.745 341.034 12.9694C340.421 12.1709 339.586 11.7716 338.528 11.7716C337.47 11.7716 336.625 12.1709 335.994 12.9694C335.382 13.745 335.075 14.8743 335.075 16.3572V26.8288H331.177V16.3572C331.177 14.8743 330.871 13.745 330.258 12.9694C329.646 12.1709 328.811 11.7716 327.753 11.7716C326.676 11.7716 325.822 12.1709 325.191 12.9694C324.578 13.745 324.272 14.8743 324.272 16.3572V26.8288H320.374V7.87045H324.272V10.1632C324.773 9.36476 325.414 8.73737 326.193 8.28109C326.991 7.82482 327.864 7.59668 328.811 7.59668C330.017 7.59668 331.094 7.91608 332.04 8.55486C332.987 9.17084 333.72 10.0606 334.24 11.2241C334.741 10.129 335.465 9.25069 336.412 8.58908C337.377 7.92748 338.417 7.59668 339.53 7.59668Z" fill="white"/>
<path d="M300.501 17.2812C300.501 15.3649 300.807 13.6652 301.42 12.1823C302.051 10.6994 302.896 9.55872 303.954 8.76023C305.03 7.96174 306.227 7.5625 307.545 7.5625C308.696 7.5625 309.699 7.84767 310.552 8.41802C311.425 8.98837 312.121 9.70701 312.641 10.5739V7.87049H316.567V26.8289H312.641V24.057C312.14 24.9467 311.443 25.6882 310.552 26.2813C309.68 26.8517 308.668 27.1368 307.518 27.1368C306.218 27.1368 305.03 26.7262 303.954 25.9049C302.896 25.0836 302.051 23.9315 301.42 22.4486C300.807 20.9429 300.501 19.2204 300.501 17.2812ZM312.641 17.3497C312.641 16.1862 312.455 15.1938 312.084 14.3725C311.713 13.5283 311.211 12.8896 310.58 12.4561C309.949 11.9998 309.272 11.7717 308.548 11.7717C307.824 11.7717 307.156 11.9884 306.543 12.4219C305.93 12.8553 305.429 13.4941 305.039 14.3382C304.668 15.1595 304.483 16.1405 304.483 17.2812C304.483 18.4219 304.668 19.4257 305.039 20.2927C305.429 21.1368 305.93 21.787 306.543 22.2433C307.174 22.6995 307.842 22.9277 308.548 22.9277C309.272 22.9277 309.949 22.7109 310.58 22.2775C311.211 21.8212 311.713 21.1824 312.084 20.3611C312.455 19.517 312.641 18.5132 312.641 17.3497Z" fill="white"/>
<path d="M295.731 5.61222C295.044 5.61222 294.469 5.34986 294.005 4.82514C293.559 4.27761 293.336 3.6046 293.336 2.80611C293.336 2.00762 293.559 1.34602 294.005 0.821301C294.469 0.273768 295.044 0 295.731 0C296.418 0 296.984 0.273768 297.429 0.821301C297.893 1.34602 298.125 2.00762 298.125 2.80611C298.125 3.6046 297.893 4.27761 297.429 4.82514C296.984 5.34986 296.418 5.61222 295.731 5.61222ZM297.652 7.8708V26.8292H293.754V7.8708H297.652Z" fill="white"/>
<path d="M276.002 17.3497C276.002 15.3877 276.327 13.6766 276.976 12.2165C277.626 10.7336 278.526 9.59294 279.677 8.79445C280.828 7.97315 282.146 7.5625 283.631 7.5625C285.543 7.5625 287.121 8.15566 288.364 9.34198C289.627 10.5055 290.471 12.1481 290.898 14.2698H286.694C286.471 13.4485 286.091 12.8097 285.552 12.3534C285.033 11.8743 284.383 11.6348 283.603 11.6348C282.489 11.6348 281.608 12.1367 280.958 13.1405C280.308 14.1215 279.984 15.5246 279.984 17.3497C279.984 19.152 280.308 20.555 280.958 21.5588C281.608 22.5398 282.489 23.0303 283.603 23.0303C285.181 23.0303 286.211 22.1634 286.694 20.4296H290.898C290.471 22.4828 289.627 24.114 288.364 25.3231C287.102 26.5323 285.524 27.1368 283.631 27.1368C282.146 27.1368 280.828 26.7376 279.677 25.9391C278.526 25.1178 277.626 23.9771 276.976 22.517C276.327 21.0341 276.002 19.3117 276.002 17.3497Z" fill="white"/>
<path d="M267.144 7.59668C268.982 7.59668 270.467 8.31532 271.599 9.75259C272.731 11.1671 273.297 13.1519 273.297 15.707V26.8288H269.399V16.3572C269.399 14.8515 269.093 13.6994 268.481 12.9009C267.868 12.0796 267.033 11.669 265.975 11.669C264.898 11.669 264.044 12.0796 263.413 12.9009C262.801 13.6994 262.494 14.8515 262.494 16.3572V26.8288H258.596V7.87045H262.494V10.2317C263.014 9.41038 263.673 8.7716 264.471 8.31532C265.288 7.83623 266.179 7.59668 267.144 7.59668Z" fill="white"/>
<path d="M255.751 16.939C255.751 17.6234 255.714 18.2394 255.64 18.7869H244.363C244.456 20.1558 244.846 21.228 245.532 22.0037C246.219 22.7794 247.064 23.1672 248.066 23.1672C249.514 23.1672 250.544 22.403 251.157 20.8744H255.361C254.916 22.6995 254.062 24.2053 252.799 25.3916C251.537 26.5551 249.987 27.1368 248.15 27.1368C246.665 27.1368 245.328 26.7376 244.14 25.9391C242.971 25.1178 242.052 23.9657 241.384 22.4828C240.734 20.9999 240.409 19.2889 240.409 17.3497C240.409 15.3877 240.734 13.6652 241.384 12.1823C242.033 10.6994 242.943 9.55872 244.112 8.76023C245.282 7.96174 246.628 7.5625 248.15 7.5625C249.616 7.5625 250.925 7.95034 252.076 8.72601C253.245 9.50168 254.145 10.6082 254.776 12.0454C255.426 13.4599 255.751 15.0911 255.751 16.939ZM251.714 15.5702C251.695 14.3382 251.333 13.3572 250.628 12.6272C249.922 11.8743 249.059 11.4979 248.038 11.4979C247.073 11.4979 246.256 11.8629 245.588 12.593C244.938 13.3002 244.539 14.2926 244.391 15.5702H251.714Z" fill="white"/>
<path d="M234.053 10.8134C234.554 9.80963 235.204 9.02255 236.002 8.4522C236.819 7.88185 237.747 7.59668 238.786 7.59668V12.6271H237.756C236.531 12.6271 235.603 12.9808 234.972 13.688C234.359 14.3952 234.053 15.6272 234.053 17.3838V26.8288H230.155V7.87045H234.053V10.8134Z" fill="white"/>
<path d="M227.309 16.939C227.309 17.6234 227.272 18.2394 227.198 18.7869H215.922C216.014 20.1558 216.404 21.228 217.091 22.0037C217.778 22.7794 218.622 23.1672 219.625 23.1672C221.073 23.1672 222.103 22.403 222.715 20.8744H226.92C226.474 22.6995 225.62 24.2053 224.358 25.3916C223.096 26.5551 221.546 27.1368 219.708 27.1368C218.223 27.1368 216.887 26.7376 215.699 25.9391C214.529 25.1178 213.611 23.9657 212.942 22.4828C212.293 20.9999 211.968 19.2889 211.968 17.3497C211.968 15.3877 212.293 13.6652 212.942 12.1823C213.592 10.6994 214.502 9.55872 215.671 8.76023C216.84 7.96174 218.186 7.5625 219.708 7.5625C221.175 7.5625 222.483 7.95034 223.634 8.72601C224.804 9.50168 225.704 10.6082 226.335 12.0454C226.985 13.4599 227.309 15.0911 227.309 16.939ZM223.272 15.5702C223.254 14.3382 222.892 13.3572 222.186 12.6272C221.481 11.8743 220.618 11.4979 219.597 11.4979C218.632 11.4979 217.815 11.8629 217.147 12.593C216.497 13.3002 216.098 14.2926 215.949 15.5702H223.272Z" fill="white"/>
<path d="M205.13 10.1296C204.684 9.12581 204.072 8.36154 203.292 7.83682C202.513 7.3121 201.603 7.04975 200.564 7.04975C199.413 7.04975 198.392 7.36914 197.501 8.00793C196.61 8.64672 195.914 9.55927 195.413 10.7456C194.911 11.9319 194.661 13.3008 194.661 14.8521C194.661 16.4491 194.911 17.8407 195.413 19.027C195.932 20.2134 196.647 21.1259 197.557 21.7647C198.466 22.4035 199.524 22.7229 200.731 22.7229C202.216 22.7229 203.431 22.2438 204.378 21.2856C205.325 20.3046 205.947 18.9472 206.244 17.2133H199.561V13.5517H210.086V17.7266C209.826 19.3921 209.269 20.932 208.415 22.3465C207.562 23.7609 206.457 24.9016 205.102 25.7685C203.766 26.6127 202.262 27.0347 200.591 27.0347C198.717 27.0347 197.018 26.5214 195.496 25.4948C193.993 24.4453 192.805 22.9967 191.932 21.1487C191.078 19.3008 190.651 17.2019 190.651 14.8521C190.651 12.5023 191.078 10.4034 191.932 8.55546C192.805 6.68472 193.993 5.23604 195.496 4.20941C197.018 3.15997 198.707 2.63525 200.564 2.63525C202.754 2.63525 204.657 3.29686 206.272 4.62006C207.886 5.92046 209 7.75697 209.613 10.1296H205.13Z" fill="white"/>
<path d="M174.057 27.1368C172.572 27.1368 171.236 26.7376 170.048 25.9391C168.86 25.1178 167.923 23.9657 167.236 22.4828C166.568 20.9999 166.233 19.2889 166.233 17.3497C166.233 15.4105 166.577 13.6994 167.264 12.2165C167.969 10.7336 168.925 9.59294 170.131 8.79445C171.338 7.97315 172.684 7.5625 174.169 7.5625C175.654 7.5625 177 7.97315 178.206 8.79445C179.413 9.59294 180.359 10.7336 181.046 12.2165C181.751 13.6994 182.104 15.4105 182.104 17.3497C182.104 19.2889 181.742 20.9999 181.018 22.4828C180.313 23.9657 179.348 25.1178 178.123 25.9391C176.916 26.7376 175.561 27.1368 174.057 27.1368ZM174.057 22.9619C174.763 22.9619 175.422 22.7566 176.034 22.3459C176.665 21.9125 177.167 21.2737 177.538 20.4296C177.909 19.5854 178.095 18.5588 178.095 17.3497C178.095 15.5474 177.705 14.1671 176.925 13.2089C176.164 12.2279 175.227 11.7374 174.113 11.7374C172.999 11.7374 172.062 12.2279 171.301 13.2089C170.558 14.1671 170.187 15.5474 170.187 17.3497C170.187 19.152 170.549 20.5436 171.273 21.5246C172.016 22.4828 172.944 22.9619 174.057 22.9619Z" fill="white"/>
<path d="M157.728 16.939C157.728 17.6234 157.691 18.2394 157.617 18.7869H146.34C146.433 20.1558 146.823 21.228 147.51 22.0037C148.197 22.7794 149.041 23.1672 150.044 23.1672C151.491 23.1672 152.522 22.403 153.134 20.8744H157.339C156.893 22.6995 156.039 24.2053 154.777 25.3916C153.515 26.5551 151.965 27.1368 150.127 27.1368C148.642 27.1368 147.306 26.7376 146.118 25.9391C144.948 25.1178 144.029 23.9657 143.361 22.4828C142.712 20.9999 142.387 19.2889 142.387 17.3497C142.387 15.3877 142.712 13.6652 143.361 12.1823C144.011 10.6994 144.92 9.55872 146.09 8.76023C147.259 7.96174 148.605 7.5625 150.127 7.5625C151.594 7.5625 152.902 7.95034 154.053 8.72601C155.223 9.50168 156.123 10.6082 156.754 12.0454C157.404 13.4599 157.728 15.0911 157.728 16.939ZM153.691 15.5702C153.673 14.3382 153.311 13.3572 152.605 12.6272C151.9 11.8743 151.037 11.4979 150.016 11.4979C149.051 11.4979 148.234 11.8629 147.566 12.593C146.916 13.3002 146.517 14.2926 146.368 15.5702H153.691Z" fill="#6B26FE"/>
<path d="M139.543 7.87109V26.8295H135.617V24.434C135.116 25.2553 134.457 25.9055 133.64 26.3846C132.842 26.8409 131.969 27.069 131.023 27.069C129.816 27.069 128.749 26.761 127.821 26.145C126.892 25.5062 126.159 24.5823 125.621 23.3731C125.101 22.1412 124.841 20.6811 124.841 18.9929V7.87109H128.739V18.3085C128.739 19.8142 129.046 20.9777 129.658 21.799C130.271 22.5975 131.106 22.9967 132.164 22.9967C133.241 22.9967 134.085 22.5975 134.698 21.799C135.31 20.9777 135.617 19.8142 135.617 18.3085V7.87109H139.543Z" fill="#6B26FE"/>
<path d="M105.108 17.3154C105.108 15.4218 105.423 13.745 106.055 12.2849C106.704 10.802 107.577 9.64993 108.672 8.82863C109.767 8.00733 110.974 7.59668 112.291 7.59668C113.387 7.59668 114.352 7.85904 115.187 8.38376C116.041 8.88566 116.728 9.53586 117.248 10.3343V7.87045H121.174V35.8631H117.248V24.228C116.728 25.0493 116.032 25.7337 115.159 26.2813C114.287 26.8288 113.303 27.1026 112.208 27.1026C110.909 27.1026 109.711 26.6919 108.616 25.8706C107.54 25.0265 106.686 23.863 106.055 22.3801C105.423 20.8972 105.108 19.209 105.108 17.3154ZM117.248 17.3496C117.248 16.1861 117.053 15.1823 116.663 14.3382C116.273 13.4941 115.763 12.8553 115.132 12.4218C114.519 11.9884 113.86 11.7716 113.155 11.7716C112.468 11.7716 111.809 11.9884 111.178 12.4218C110.565 12.8553 110.064 13.4941 109.674 14.3382C109.284 15.1595 109.09 16.1519 109.09 17.3154C109.09 18.4789 109.284 19.4941 109.674 20.3611C110.064 21.2052 110.565 21.844 111.178 22.2774C111.809 22.7109 112.468 22.9276 113.155 22.9276C113.86 22.9276 114.519 22.7109 115.132 22.2774C115.763 21.844 116.273 21.2052 116.663 20.3611C117.053 19.5169 117.248 18.5131 117.248 17.3496Z" fill="#6B26FE"/>
<path d="M100.338 5.61222C99.6511 5.61222 99.0757 5.34986 98.6116 4.82514C98.1661 4.27761 97.9434 3.6046 97.9434 2.80611C97.9434 2.00762 98.1661 1.34602 98.6116 0.821301C99.0757 0.273768 99.6511 0 100.338 0C101.025 0 101.591 0.273768 102.036 0.821301C102.5 1.34602 102.732 2.00762 102.732 2.80611C102.732 3.6046 102.5 4.27761 102.036 4.82514C101.591 5.34986 101.025 5.61222 100.338 5.61222ZM102.259 7.8708V26.8292H98.361V7.8708H102.259Z" fill="#6B26FE"/>
<path d="M95.8345 11.8061H93.1337V26.829H89.1799V11.8061H87.4258V7.87069H89.1799V6.9125C89.1799 4.58549 89.7182 2.87444 90.7948 1.77937C91.8714 0.684307 93.4956 0.170995 95.6674 0.239438V4.2775C94.7208 4.25468 94.0618 4.4486 93.6905 4.85925C93.3193 5.2699 93.1337 6.01135 93.1337 7.08361V7.87069H95.8345V11.8061Z" fill="#6B26FE"/>
<path d="M82.9902 5.61222C82.3034 5.61222 81.728 5.34986 81.264 4.82514C80.8185 4.27761 80.5957 3.6046 80.5957 2.80611C80.5957 2.00762 80.8185 1.34602 81.264 0.821301C81.728 0.273768 82.3034 0 82.9902 0C83.677 0 84.2432 0.273768 84.6887 0.821301C85.1527 1.34602 85.3848 2.00762 85.3848 2.80611C85.3848 3.6046 85.1527 4.27761 84.6887 4.82514C84.2432 5.34986 83.677 5.61222 82.9902 5.61222ZM84.9114 7.8708V26.8292H81.0134V7.8708H84.9114Z" fill="#6B26FE"/>
<path d="M77.1617 1.50586V26.8293H73.2637V1.50586H77.1617Z" fill="#6B26FE"/>
<path d="M58.2911 10.6082C58.7923 9.74123 59.4791 9.02259 60.3516 8.45224C61.2425 7.85908 62.2542 7.5625 63.3865 7.5625C64.7044 7.5625 65.8924 7.96174 66.9504 8.76023C68.0271 9.55872 68.8716 10.6994 69.4842 12.1823C70.1153 13.6424 70.4309 15.342 70.4309 17.2812C70.4309 19.2204 70.1153 20.9429 69.4842 22.4486C68.8716 23.9315 68.0271 25.0836 66.9504 25.9049C65.8924 26.7262 64.7044 27.1368 63.3865 27.1368C62.2542 27.1368 61.2518 26.8517 60.3794 26.2813C59.5255 25.711 58.8295 24.9923 58.2911 24.1254V35.8631H54.3931V7.87049H58.2911V10.6082ZM66.4493 17.2812C66.4493 16.1405 66.2543 15.1595 65.8645 14.3382C65.4933 13.4941 64.9921 12.8553 64.361 12.4219C63.7485 11.9884 63.0802 11.7717 62.3563 11.7717C61.6509 11.7717 60.9827 11.9998 60.3516 12.4561C59.739 12.8895 59.2378 13.5283 58.848 14.3725C58.4768 15.2166 58.2911 16.209 58.2911 17.3497C58.2911 18.4904 58.4768 19.4828 58.848 20.3269C59.2378 21.171 59.739 21.8212 60.3516 22.2775C60.9827 22.7109 61.6509 22.9277 62.3563 22.9277C63.0802 22.9277 63.7485 22.6995 64.361 22.2432C64.9921 21.787 65.4933 21.1368 65.8645 20.2927C66.2543 19.4485 66.4493 18.4447 66.4493 17.2812Z" fill="#6B26FE"/>
<path d="M44.374 7.59668C46.2674 7.59668 47.7895 8.31532 48.9403 9.75259C50.1098 11.1671 50.6945 13.1519 50.6945 15.707V26.8288H46.7964V16.3572C46.7964 14.8743 46.4901 13.745 45.8776 12.9694C45.265 12.1709 44.4297 11.7716 43.3717 11.7716C42.3136 11.7716 41.469 12.1709 40.8379 12.9694C40.2254 13.745 39.9191 14.8743 39.9191 16.3572V26.8288H36.021V16.3572C36.021 14.8743 35.7147 13.745 35.1022 12.9694C34.4896 12.1709 33.6543 11.7716 32.5963 11.7716C31.5197 11.7716 30.6658 12.1709 30.0347 12.9694C29.4221 13.745 29.1158 14.8743 29.1158 16.3572V26.8288H25.2178V7.87045H29.1158V10.1632C29.617 9.36476 30.2574 8.73737 31.037 8.28109C31.8352 7.82482 32.7076 7.59668 33.6543 7.59668C34.8609 7.59668 35.9375 7.91608 36.8842 8.55486C37.8308 9.17084 38.564 10.0606 39.0838 11.2241C39.585 10.129 40.3089 9.25069 41.2556 8.58908C42.2208 7.92748 43.2603 7.59668 44.374 7.59668Z" fill="#6B26FE"/>
<path d="M19.4453 5.61222C18.7585 5.61222 18.1831 5.34986 17.719 4.82514C17.2735 4.27761 17.0508 3.6046 17.0508 2.80611C17.0508 2.00762 17.2735 1.34602 17.719 0.821301C18.1831 0.273768 18.7585 0 19.4453 0C20.1321 0 20.6983 0.273768 21.1438 0.821301C21.6078 1.34602 21.8398 2.00762 21.8398 2.80611C21.8398 3.6046 21.6078 4.27761 21.1438 4.82514C20.6983 5.34986 20.1321 5.61222 19.4453 5.61222ZM21.3665 7.8708V26.8292H17.4684V7.8708H21.3665Z" fill="#6B26FE"/>
<path d="M7.21144 27.0685C5.85639 27.0685 4.63128 26.7833 3.53611 26.213C2.4595 25.6426 1.60563 24.8213 0.974518 23.7491C0.343401 22.6768 0.0185622 21.4107 0 19.9506H4.17651C4.2322 20.9316 4.51063 21.7072 5.01181 22.2776C5.53155 22.8479 6.23692 23.1331 7.12791 23.1331C8.03746 23.1331 8.75211 22.8707 9.27185 22.346C9.79159 21.7985 10.0515 21.0913 10.0515 20.2243C10.0515 19.5171 9.87512 18.9353 9.52244 18.4791C9.16975 18.0228 8.72426 17.6692 8.18596 17.4182C7.66621 17.1445 6.94228 16.8479 6.01417 16.5285C4.75194 16.0722 3.72173 15.6273 2.92355 15.1939C2.14394 14.7376 1.46642 14.0646 0.890986 13.1748C0.334119 12.2623 0.0556876 11.0531 0.0556876 9.54742C0.0556876 8.13296 0.3434 6.901 0.91883 5.85156C1.49426 4.80212 2.30172 4.00364 3.3412 3.45611C4.38069 2.88576 5.56867 2.60059 6.90516 2.60059C8.90988 2.60059 10.5341 3.20515 11.7778 4.41429C13.04 5.60061 13.7361 7.26603 13.866 9.41054H9.57812C9.541 8.58924 9.25329 7.91622 8.71498 7.3915C8.19524 6.84397 7.49915 6.5702 6.62673 6.5702C5.86567 6.5702 5.25312 6.80975 4.78907 7.28884C4.34357 7.76794 4.12082 8.46376 4.12082 9.37632C4.12082 10.0151 4.28788 10.5512 4.622 10.9847C4.97469 11.3953 5.40161 11.7376 5.90279 12.0113C6.42254 12.2623 7.14647 12.5589 8.07458 12.9011C9.33681 13.3573 10.367 13.8136 11.1652 14.2699C11.9634 14.7262 12.6502 15.4106 13.2256 16.3231C13.801 17.2357 14.0888 18.4334 14.0888 19.9163C14.0888 21.1939 13.8196 22.3802 13.2813 23.4753C12.743 24.5704 11.9541 25.4487 10.9146 26.1103C9.87512 26.7491 8.64073 27.0685 7.21144 27.0685Z" fill="#6B26FE"/>
</svg>
